<mxfile host="app.diagrams.net" modified="2023-08-25T19:23:52.184Z" agent="Mozilla/5.0 (Macintosh; Intel Mac OS X 10_15_7) AppleWebKit/537.36 (KHTML, like Gecko) Chrome/116.0.0.0 Safari/537.36" version="21.6.8" etag="XgFq7-_jYUuAvLw0HeMf" type="github">
  <diagram name="Страница — 1" id="W2QUFo7kyKb32-hINNN1">
    <mxGraphModel>
      <root>
        <mxCell id="0" />
        <mxCell id="1" parent="0" />
      </root>
    </mxGraphModel>
  </diagram>
</mxfile>
